<svg id="visual" viewBox="0 0 900 600" width="900" height="600" xmlns="http://www.w3.org/2000/svg" xmlns:xlink="http://www.w3.org/1999/xlink" version="1.1"><rect x="0" y="0" width="900" height="600" fill="#000000"></rect><path d="M0 193L10 187.7C20 182.3 40 171.7 60 165C80 158.3 100 155.7 120 162.3C140 169 160 185 180 189.7C200 194.3 220 187.7 240 185.8C260 184 280 187 300 195.2C320 203.3 340 216.7 360 209.3C380 202 400 174 420 164.3C440 154.7 460 163.3 480 173.7C500 184 520 196 540 191.2C560 186.3 580 164.7 600 154.2C620 143.7 640 144.3 660 143.8C680 143.3 700 141.7 720 153.7C740 165.7 760 191.3 780 204.5C800 217.7 820 218.3 840 219.2C860 220 880 221 890 221.5L900 222L900 0L890 0C880 0 860 0 840 0C820 0 800 0 780 0C760 0 740 0 720 0C700 0 680 0 660 0C640 0 620 0 600 0C580 0 560 0 540 0C520 0 500 0 480 0C460 0 440 0 420 0C400 0 380 0 360 0C340 0 320 0 300 0C280 0 260 0 240 0C220 0 200 0 180 0C160 0 140 0 120 0C100 0 80 0 60 0C40 0 20 0 10 0L0 0Z" fill="#03460c"></path><path d="M0 115L10 120.7C20 126.3 40 137.7 60 141.3C80 145 100 141 120 150.7C140 160.3 160 183.7 180 183.8C200 184 220 161 240 160.3C260 159.7 280 181.3 300 191.7C320 202 340 201 360 187C380 173 400 146 420 138.3C440 130.7 460 142.3 480 144.8C500 147.3 520 140.7 540 143C560 145.3 580 156.7 600 156.8C620 157 640 146 660 148.5C680 151 700 167 720 164C740 161 760 139 780 142.7C800 146.3 820 175.7 840 187.2C860 198.7 880 192.3 890 189.2L900 186L900 0L890 0C880 0 860 0 840 0C820 0 800 0 780 0C760 0 740 0 720 0C700 0 680 0 660 0C640 0 620 0 600 0C580 0 560 0 540 0C520 0 500 0 480 0C460 0 440 0 420 0C400 0 380 0 360 0C340 0 320 0 300 0C280 0 260 0 240 0C220 0 200 0 180 0C160 0 140 0 120 0C100 0 80 0 60 0C40 0 20 0 10 0L0 0Z" fill="#073f0b"></path><path d="M0 121L10 119C20 117 40 113 60 114.8C80 116.7 100 124.3 120 130.8C140 137.3 160 142.7 180 143.7C200 144.7 220 141.3 240 139.8C260 138.3 280 138.7 300 142.3C320 146 340 153 360 156.8C380 160.7 400 161.3 420 150.7C440 140 460 118 480 112.2C500 106.3 520 116.7 540 116.5C560 116.3 580 105.7 600 106.5C620 107.3 640 119.7 660 127.2C680 134.7 700 137.3 720 136C740 134.7 760 129.3 780 122.2C800 115 820 106 840 110.7C860 115.3 880 133.7 890 142.8L900 152L900 0L890 0C880 0 860 0 840 0C820 0 800 0 780 0C760 0 740 0 720 0C700 0 680 0 660 0C640 0 620 0 600 0C580 0 560 0 540 0C520 0 500 0 480 0C460 0 440 0 420 0C400 0 380 0 360 0C340 0 320 0 300 0C280 0 260 0 240 0C220 0 200 0 180 0C160 0 140 0 120 0C100 0 80 0 60 0C40 0 20 0 10 0L0 0Z" fill="#0a3809"></path><path d="M0 114L10 113.5C20 113 40 112 60 104.5C80 97 100 83 120 85.5C140 88 160 107 180 115.7C200 124.3 220 122.7 240 114C260 105.3 280 89.7 300 84.5C320 79.3 340 84.7 360 94.7C380 104.7 400 119.3 420 126.5C440 133.7 460 133.3 480 122.3C500 111.3 520 89.7 540 80.5C560 71.3 580 74.7 600 80.2C620 85.7 640 93.3 660 92.8C680 92.3 700 83.7 720 85.3C740 87 760 99 780 100.7C800 102.3 820 93.7 840 92C860 90.3 880 95.7 890 98.3L900 101L900 0L890 0C880 0 860 0 840 0C820 0 800 0 780 0C760 0 740 0 720 0C700 0 680 0 660 0C640 0 620 0 600 0C580 0 560 0 540 0C520 0 500 0 480 0C460 0 440 0 420 0C400 0 380 0 360 0C340 0 320 0 300 0C280 0 260 0 240 0C220 0 200 0 180 0C160 0 140 0 120 0C100 0 80 0 60 0C40 0 20 0 10 0L0 0Z" fill="#0c3207"></path><path d="M0 73L10 72C20 71 40 69 60 69.7C80 70.3 100 73.7 120 79C140 84.3 160 91.7 180 86.3C200 81 220 63 240 57.7C260 52.3 280 59.7 300 67C320 74.3 340 81.7 360 84.2C380 86.7 400 84.3 420 78.3C440 72.3 460 62.7 480 59.7C500 56.7 520 60.3 540 67.8C560 75.3 580 86.7 600 83.8C620 81 640 64 660 61.2C680 58.3 700 69.7 720 76.7C740 83.7 760 86.3 780 86.8C800 87.3 820 85.7 840 82.5C860 79.3 880 74.7 890 72.3L900 70L900 0L890 0C880 0 860 0 840 0C820 0 800 0 780 0C760 0 740 0 720 0C700 0 680 0 660 0C640 0 620 0 600 0C580 0 560 0 540 0C520 0 500 0 480 0C460 0 440 0 420 0C400 0 380 0 360 0C340 0 320 0 300 0C280 0 260 0 240 0C220 0 200 0 180 0C160 0 140 0 120 0C100 0 80 0 60 0C40 0 20 0 10 0L0 0Z" fill="#0d2b04"></path><path d="M0 25L10 24.8C20 24.7 40 24.3 60 27.7C80 31 100 38 120 42.5C140 47 160 49 180 49.7C200 50.3 220 49.7 240 45.5C260 41.3 280 33.7 300 31C320 28.3 340 30.7 360 35.7C380 40.7 400 48.3 420 49.5C440 50.7 460 45.3 480 41.7C500 38 520 36 540 38.5C560 41 580 48 600 51C620 54 640 53 660 53.3C680 53.7 700 55.3 720 53.2C740 51 760 45 780 44.7C800 44.3 820 49.7 840 52.5C860 55.3 880 55.7 890 55.8L900 56L900 0L890 0C880 0 860 0 840 0C820 0 800 0 780 0C760 0 740 0 720 0C700 0 680 0 660 0C640 0 620 0 600 0C580 0 560 0 540 0C520 0 500 0 480 0C460 0 440 0 420 0C400 0 380 0 360 0C340 0 320 0 300 0C280 0 260 0 240 0C220 0 200 0 180 0C160 0 140 0 120 0C100 0 80 0 60 0C40 0 20 0 10 0L0 0Z" fill="#0e2401"></path></svg>